<svg width="24" height="24" viewBox="0 0 24 24" fill="none" xmlns="http://www.w3.org/2000/svg">
<path d="M3 6.57129H21.2858" stroke="#FF4242" stroke-width="1.52381" stroke-linecap="round" stroke-linejoin="round"/>
<path d="M5.28564 6.57129H19V20.2856C19 20.6897 18.8394 21.0774 18.5536 21.3631C18.2679 21.6488 17.8803 21.8094 17.4762 21.8094H6.80946C6.40531 21.8094 6.01773 21.6488 5.73195 21.3631C5.44619 21.0774 5.28564 20.6897 5.28564 20.2856V6.57129Z" stroke="#FF4242" stroke-width="1.52381" stroke-linecap="round" stroke-linejoin="round"/>
<path d="M8.33337 6.57144V5.80953C8.33337 4.79918 8.73473 3.83021 9.44916 3.11578C10.1636 2.40136 11.1326 2 12.1429 2C13.1533 2 14.1222 2.40136 14.8367 3.11578C15.5511 3.83021 15.9524 4.79918 15.9524 5.80953V6.57144" stroke="#FF4242" stroke-width="1.52381" stroke-linecap="round" stroke-linejoin="round"/>
<path d="M9.85706 11.145V17.2426" stroke="#FF4242" stroke-width="1.52381" stroke-linecap="round" stroke-linejoin="round"/>
<path d="M14.4286 11.145V17.2426" stroke="#FF4242" stroke-width="1.52381" stroke-linecap="round" stroke-linejoin="round"/>
</svg>
