<svg width="40" height="40" viewBox="0 0 40 40" fill="none" xmlns="http://www.w3.org/2000/svg">
<rect width="40" height="40" rx="20" fill="#F3F4F8"/>
<g clip-path="url(#clip0_2_12416)">
<path d="M20 12C19.8011 12 19.6103 12.079 19.4697 12.2197C19.329 12.3603 19.25 12.5511 19.25 12.75C19.25 12.9489 19.329 13.1397 19.4697 13.2803C19.6103 13.421 19.8011 13.5 20 13.5C21.7239 13.5 23.3772 14.1848 24.5962 15.4038C25.8152 16.6228 26.5 18.2761 26.5 20C26.5 21.7239 25.8152 23.3772 24.5962 24.5962C23.3772 25.8152 21.7239 26.5 20 26.5C19.8011 26.5 19.6103 26.579 19.4697 26.7197C19.329 26.8603 19.25 27.0511 19.25 27.25C19.25 27.4489 19.329 27.6397 19.4697 27.7803C19.6103 27.921 19.8011 28 20 28C22.1217 28 24.1566 27.1571 25.6569 25.6569C27.1571 24.1566 28 22.1217 28 20C28 17.8783 27.1571 15.8434 25.6569 14.3431C24.1566 12.8429 22.1217 12 20 12Z" fill="#7B828A"/>
<path d="M12.75 19.2501C12.5511 19.2501 12.3603 19.3291 12.2197 19.4698C12.079 19.6104 12 19.8012 12 20.0001C12 20.199 12.079 20.3898 12.2197 20.5304C12.3603 20.6711 12.5511 20.7501 12.75 20.7501H19.44L17.72 22.4701C17.6463 22.5388 17.5872 22.6216 17.5462 22.7136C17.5052 22.8056 17.4832 22.9049 17.4814 23.0056C17.4796 23.1063 17.4982 23.2063 17.5359 23.2997C17.5736 23.3931 17.6297 23.4779 17.701 23.5491C17.7722 23.6203 17.857 23.6765 17.9504 23.7142C18.0438 23.7519 18.1438 23.7705 18.2445 23.7687C18.3452 23.7669 18.4445 23.7449 18.5365 23.7039C18.6285 23.6629 18.7113 23.6038 18.78 23.5301L21.78 20.5301C21.9205 20.3895 21.9993 20.1988 21.9993 20.0001C21.9993 19.8013 21.9205 19.6107 21.78 19.4701L18.78 16.4701C18.6378 16.3376 18.4498 16.2655 18.2555 16.2689C18.0612 16.2723 17.8758 16.3511 17.7384 16.4885C17.601 16.6259 17.5223 16.8113 17.5188 17.0056C17.5154 17.1999 17.5875 17.3879 17.72 17.5301L19.44 19.2501H12.75Z" fill="#7B828A"/>
</g>
<defs>
<clipPath id="clip0_2_12416">
<rect width="20" height="20" fill="white" transform="translate(10 10)"/>
</clipPath>
</defs>
</svg>
