<svg width="16" height="16" viewBox="0 0 16 16" fill="none" xmlns="http://www.w3.org/2000/svg">
<path d="M8.1999 2C8.04575 2 7.8979 2.06124 7.7889 2.17024C7.67989 2.27925 7.61865 2.42709 7.61865 2.58125C7.61865 2.73541 7.67989 2.88325 7.7889 2.99226C7.8979 3.10126 8.04575 3.1625 8.1999 3.1625C9.53593 3.1625 10.8172 3.69324 11.762 4.63795C12.7067 5.58267 13.2374 6.86397 13.2374 8.2C13.2374 9.53603 12.7067 10.8173 11.762 11.7621C10.8172 12.7068 9.53593 13.2375 8.1999 13.2375C8.04575 13.2375 7.8979 13.2987 7.7889 13.4078C7.67989 13.5168 7.61865 13.6646 7.61865 13.8188C7.61865 13.9729 7.67989 14.1208 7.7889 14.2298C7.8979 14.3388 8.04575 14.4 8.1999 14.4C9.84425 14.4 11.4212 13.7468 12.584 12.5841C13.7467 11.4213 14.3999 9.84435 14.3999 8.2C14.3999 6.55566 13.7467 4.97867 12.584 3.81594C11.4212 2.65321 9.84425 2 8.1999 2Z" fill="#FF4242"/>
<path d="M2.58125 7.61879C2.42709 7.61879 2.27925 7.68003 2.17024 7.78904C2.06124 7.89804 2 8.04588 2 8.20004C2 8.3542 2.06124 8.50204 2.17024 8.61105C2.27925 8.72005 2.42709 8.78129 2.58125 8.78129H7.766L6.433 10.1143C6.37589 10.1675 6.33009 10.2317 6.29832 10.303C6.26655 10.3743 6.24947 10.4512 6.24809 10.5293C6.24672 10.6073 6.26107 10.6849 6.29031 10.7572C6.31954 10.8296 6.36305 10.8954 6.41825 10.9505C6.47344 11.0057 6.53919 11.0493 6.61156 11.0785C6.68394 11.1077 6.76146 11.1221 6.83951 11.1207C6.91755 11.1193 6.99452 11.1022 7.06582 11.0705C7.13712 11.0387 7.20129 10.9929 7.2545 10.9358L9.5795 8.61079C9.68835 8.50181 9.74949 8.35407 9.74949 8.20004C9.74949 8.04601 9.68835 7.89828 9.5795 7.78929L7.2545 5.46429C7.14432 5.36162 6.99858 5.30572 6.848 5.30838C6.69741 5.31104 6.55374 5.37204 6.44725 5.47853C6.34075 5.58503 6.27975 5.7287 6.27709 5.87928C6.27443 6.02987 6.33033 6.1756 6.433 6.28579L7.766 7.61879H2.58125Z" fill="#FF4242"/>
</svg>
