<svg width="20" height="21" viewBox="0 0 20 21" fill="none" xmlns="http://www.w3.org/2000/svg">
<path d="M7.27981 17.8845L1 19.6429L2.75835 13.3631L14.2574 1.91987C14.3873 1.78696 14.5426 1.68135 14.7138 1.60924C14.8852 1.53714 15.0693 1.5 15.2552 1.5C15.441 1.5 15.6251 1.53714 15.7965 1.60924C15.9677 1.68135 16.123 1.78696 16.253 1.91987L18.723 4.40389C18.8538 4.53361 18.9576 4.68797 19.0285 4.85801C19.0994 5.02807 19.1358 5.21048 19.1358 5.3947C19.1358 5.57892 19.0994 5.76133 19.0285 5.93139C18.9576 6.10144 18.8538 6.25579 18.723 6.38551L7.27981 17.8845Z" stroke="#7B828A" stroke-width="1.5" stroke-linecap="round" stroke-linejoin="round"/>
</svg>
